<svg width="64" height="64" viewBox="0 0 64 64" fill="none" xmlns="http://www.w3.org/2000/svg">
<path d="M64 56.8889C64 58.7749 63.2508 60.5836 61.9172 61.9172C60.5836 63.2508 58.7749 64 56.8889 64H7.11111C5.22513 64 3.41639 63.2508 2.0828 61.9172C0.749204 60.5836 0 58.7749 0 56.8889V7.11111C0 5.22513 0.749204 3.41639 2.0828 2.0828C3.41639 0.749204 5.22513 0 7.11111 0L56.8889 0C58.7749 0 60.5836 0.749204 61.9172 2.0828C63.2508 3.41639 64 5.22513 64 7.11111V56.8889Z" fill="#77B255"/>
<path d="M52.0533 11.3103C51.0646 10.6686 49.8614 10.446 48.7085 10.6914C47.5557 10.9368 46.5475 11.6301 45.9057 12.6188L26.5529 42.4481L17.6124 34.1814C17.1856 33.776 16.6824 33.4594 16.1323 33.2501C15.5821 33.0407 14.9957 32.9428 14.4074 32.9619C13.819 32.981 13.2403 33.1168 12.7048 33.3614C12.1694 33.606 11.6879 33.9545 11.2882 34.3868C10.8886 34.819 10.5788 35.3264 10.3769 35.8794C10.1749 36.4323 10.0848 37.0199 10.1119 37.6079C10.1389 38.196 10.2825 38.7729 10.5343 39.305C10.786 39.8371 11.141 40.3139 11.5786 40.7077L24.3946 52.5583C25.248 53.3494 26.3324 53.7405 27.4097 53.7405C28.6062 53.7405 30.1369 53.2392 31.1413 51.7157C31.7315 50.8161 53.3635 17.4579 53.3635 17.4579C53.6812 16.9682 53.8992 16.4208 54.0053 15.8468C54.1114 15.2728 54.1033 14.6836 53.9817 14.1127C53.86 13.5419 53.6271 13.0006 53.2962 12.5197C52.9653 12.0389 52.543 11.6279 52.0533 11.3103Z" fill="white"/>
</svg>
