<svg width="45" height="45" viewBox="0 0 45 45" fill="none" xmlns="http://www.w3.org/2000/svg">
<g clip-path="url(#clip0_656_255)">
<path d="M44.8063 39.9999C44.8063 42.7499 42.5563 44.9999 39.8063 44.9999H7.30627C4.55627 44.9999 2.30627 42.7499 2.30627 39.9999V23.7499C2.30627 20.9999 4.55627 18.7499 7.30627 18.7499H39.8063C42.5563 18.7499 44.8063 20.9999 44.8063 23.7499V39.9999Z" fill="#3F7123"/>
<path d="M2.30627 18.7499H44.8063V26.2499H2.30627V18.7499Z" fill="#3F7123"/>
<path d="M2.30627 18.7499H44.8063V27.4999H2.30627V18.7499Z" fill="#CCD6DD"/>
<path d="M2.30627 18.7499H7.30627L2.30627 27.4999V18.7499ZM16.0563 18.7499L11.0563 27.4999H19.8063L24.8063 18.7499H16.0563ZM33.5563 18.7499L28.5563 27.4999H37.3063L42.3063 18.7499H33.5563Z" fill="#292F33"/>
<path d="M0.193726 10.2587L41.435 0L43.5475 8.49L2.30623 18.75L0.193726 10.2587Z" fill="#CCD6DD"/>
<path d="M0.193726 10.2588L7.15873 17.5426L2.30623 18.7501L0.193726 10.2588ZM24.1412 13.3188L17.1762 6.03384L8.68498 8.14634L15.65 15.4313L24.1412 13.3188ZM41.1237 9.09384L34.1587 1.80884L25.6675 3.92134L32.6325 11.2051L41.1237 9.09384Z" fill="#292F33"/>
</g>
<defs>
<clipPath id="clip0_656_255">
<rect width="45" height="45" fill="white"/>
</clipPath>
</defs>
</svg>
