<svg width="64" height="64" viewBox="0 0 64 64" fill="none" xmlns="http://www.w3.org/2000/svg">
<path d="M64 56.8889C64 58.7749 63.2508 60.5836 61.9172 61.9172C60.5836 63.2508 58.7749 64 56.8889 64H7.11111C5.22513 64 3.41639 63.2508 2.0828 61.9172C0.749204 60.5836 0 58.7749 0 56.8889V7.11111C0 5.22513 0.749204 3.41639 2.0828 2.0828C3.41639 0.749204 5.22513 0 7.11111 0L56.8889 0C58.7749 0 60.5836 0.749204 61.9172 2.0828C63.2508 3.41639 64 5.22513 64 7.11111V56.8889Z" fill="#B25555"/>
<path d="M38.2737 32.0106L52.919 17.3653C53.7522 16.5318 54.2203 15.4015 54.2203 14.223C54.2203 13.0445 53.7522 11.9143 52.919 11.0808C52.0856 10.2476 50.9553 9.77954 49.7768 9.77954C48.5983 9.77954 47.4681 10.2476 46.6346 11.0808L31.9893 25.7261L17.3439 11.0808C16.5105 10.2476 15.3802 9.77954 14.2017 9.77954C13.0232 9.77954 11.8929 10.2476 11.0595 11.0808C10.2263 11.9143 9.75822 13.0445 9.75822 14.223C9.75822 15.4015 10.2263 16.5318 11.0595 17.3653L25.7048 32.0106L11.0239 46.6915C10.4011 47.3125 9.97663 48.1044 9.80444 48.967C9.63225 49.8295 9.72006 50.7237 10.0567 51.5363C10.3934 52.3488 10.9638 53.0431 11.6956 53.5311C12.4273 54.0191 13.2875 54.2788 14.167 54.2773C15.3048 54.2773 16.4426 53.8435 17.3102 52.9759L31.991 38.2933L46.6364 52.9386C47.5039 53.8061 48.6417 54.2399 49.7795 54.2399C50.9173 54.2399 52.0533 53.8061 52.9226 52.9386C53.7558 52.1051 54.2239 50.9749 54.2239 49.7964C54.2239 48.6179 53.7558 47.4876 52.9226 46.6541L38.2737 32.0106Z" fill="white"/>
</svg>
