<svg width="64" height="64" viewBox="0 0 64 64" fill="none" xmlns="http://www.w3.org/2000/svg">
<path d="M64 32C64 49.6729 49.6729 64 32 64C14.3289 64 0 49.6729 0 32C0 14.3289 14.3289 0 32 0C49.6729 0 64 14.3289 64 32Z" fill="#FFCC4D"/>
<path d="M50.5901 31.6392C50.4834 31.3992 47.9252 25.7778 42.6666 25.7778C37.4079 25.7778 34.8497 31.3992 34.743 31.6392C34.6676 31.8184 34.6528 32.0173 34.7006 32.2058C34.7485 32.3942 34.8564 32.562 35.0082 32.6836C35.1599 32.8051 35.3471 32.874 35.5415 32.8796C35.7358 32.8852 35.9267 32.8273 36.0852 32.7147C36.1066 32.6987 38.3288 31.1112 42.6666 31.1112C46.9794 31.1112 49.1981 32.6774 49.2479 32.7129C49.4049 32.8332 49.5978 32.8975 49.7956 32.8954C49.9934 32.8933 50.1848 32.825 50.3393 32.7014C50.4938 32.5778 50.6024 32.4061 50.6479 32.2135C50.6933 32.021 50.673 31.8188 50.5901 31.6392ZM29.2568 31.6392C29.1501 31.3992 26.5919 25.7778 21.3332 25.7778C16.0746 25.7778 13.5163 31.3992 13.4097 31.6392C13.3284 31.8186 13.3092 32.0199 13.355 32.2114C13.4008 32.4029 13.509 32.5737 13.6626 32.697C13.8162 32.8202 14.0064 32.8888 14.2033 32.8921C14.4002 32.8953 14.5926 32.8329 14.7501 32.7147C14.7732 32.6987 16.9937 31.1112 21.3332 31.1112C25.6461 31.1112 27.8648 32.6774 27.9146 32.7129C28.0716 32.8332 28.2644 32.8975 28.4622 32.8954C28.6601 32.8933 28.8515 32.825 29.006 32.7014C29.1604 32.5778 29.2691 32.4061 29.3145 32.2135C29.36 32.021 29.3397 31.8188 29.2568 31.6392ZM31.9999 39.1112C25.559 39.1112 21.2852 38.3609 15.9999 37.3334C14.7928 37.1005 12.4443 37.3334 12.4443 40.8889C12.4443 48.0001 20.6132 56.8889 31.9999 56.8889C43.3848 56.8889 51.5554 48.0001 51.5554 40.8889C51.5554 37.3334 49.207 37.0987 47.9999 37.3334C42.7146 38.3609 38.4408 39.1112 31.9999 39.1112Z" fill="#664500"/>
<path d="M16 40.8889C16 40.8889 21.3333 42.6667 32 42.6667C42.6667 42.6667 48 40.8889 48 40.8889C48 40.8889 44.4444 48 32 48C19.5556 48 16 40.8889 16 40.8889Z" fill="white"/>
<path d="M62.2221 19.5556C62.2221 24.4658 58.2434 28.4445 53.3332 28.4445C48.423 28.4445 44.4443 24.4658 44.4443 19.5556C44.4443 14.6454 51.5554 1.77783 53.3332 1.77783C55.111 1.77783 62.2221 14.6454 62.2221 19.5556Z" fill="#5DADEC"/>
</svg>
