<svg width="64" height="64" viewBox="0 0 64 64" fill="none" xmlns="http://www.w3.org/2000/svg">
<path d="M58.5564 27.824C58.4297 27.484 58.2021 27.1908 57.904 26.9839C57.6059 26.7771 57.2516 26.6663 56.8888 26.6667H35.4221L47.8044 2.592C47.9441 2.32086 48.0116 2.01833 48.0006 1.71352C47.9896 1.40871 47.9003 1.11186 47.7414 0.851513C47.5825 0.591172 47.3593 0.376096 47.0932 0.22697C46.8271 0.0778429 46.5271 -0.000318705 46.2221 9.76696e-07C45.7959 0.000177855 45.3839 0.15349 45.0612 0.432001L31.9999 11.712L5.95014 34.2098C5.67561 34.4467 5.48011 34.762 5.38989 35.1133C5.29966 35.4645 5.31901 35.8349 5.44535 36.1749C5.57169 36.5148 5.79897 36.808 6.0967 37.0151C6.39443 37.2221 6.74837 37.3332 7.11103 37.3333H28.5777L16.1955 61.408C16.0558 61.6791 15.9882 61.9817 15.9992 62.2865C16.0102 62.5913 16.0995 62.8881 16.2584 63.1485C16.4173 63.4088 16.6406 63.6239 16.9066 63.773C17.1727 63.9222 17.4727 64.0003 17.7777 64C18.2039 63.9998 18.6159 63.8465 18.9386 63.568L31.9999 52.288L58.0497 29.7902C58.3248 29.5534 58.5208 29.2381 58.6113 28.8866C58.7019 28.5351 58.6827 28.1643 58.5564 27.824Z" fill="#FFAC33"/>
</svg>
