<svg width="45" height="45" viewBox="0 0 45 45" fill="none" xmlns="http://www.w3.org/2000/svg">
<path d="M40 26.25V27.5H37.5V26.25C37.5 25.6925 37.3875 25.1663 37.2188 24.665C38.9347 24.1352 40.4037 23.0073 41.3585 21.4862C42.3133 19.9652 42.6906 18.152 42.4219 16.3763C42.1531 14.6006 41.256 12.9803 39.8938 11.81C38.5316 10.6396 36.7947 9.99695 34.9987 9.99876C33.075 9.9974 31.2251 10.739 29.835 12.0688C29.4151 9.93704 28.217 8.03779 26.4741 6.74061C24.7311 5.44342 22.5679 4.8411 20.4053 5.05083C18.2428 5.26057 16.2356 6.26737 14.7744 7.87531C13.3132 9.48325 12.5025 11.5773 12.5 13.75C12.5007 15.262 12.8937 16.7479 13.6406 18.0625C14.3875 19.3771 15.4628 20.4754 16.7613 21.25H16.25C14.9239 21.25 13.6521 21.7768 12.7145 22.7145C11.7768 23.6522 11.25 24.9239 11.25 26.25H10L2.5 21.25H1.25V38.75H2.5L10 33.75H11.25V36.25C11.25 37.5761 11.7768 38.8479 12.7145 39.7855C13.6521 40.7232 14.9239 41.25 16.25 41.25H32.5C33.8261 41.25 35.0979 40.7232 36.0355 39.7855C36.9732 38.8479 37.5 37.5761 37.5 36.25V32.5H40V33.75H43.75V26.25H40Z" fill="#31373D"/>
<path d="M27.5 13.75C27.4998 15.4078 26.8411 16.9976 25.6688 18.1697C25.0883 18.7501 24.3992 19.2104 23.6408 19.5245C22.8824 19.8385 22.0696 20.0001 21.2487 20C20.4279 19.9999 19.6151 19.8382 18.8568 19.524C18.0984 19.2098 17.4094 18.7493 16.829 18.1688C15.6569 16.9965 14.9986 15.4065 14.9987 13.7488C14.9989 12.091 15.6576 10.5012 16.8299 9.3291C18.0023 8.157 19.5922 7.49861 21.25 7.49878C22.9077 7.49895 24.4975 8.15765 25.6696 9.32999C26.8417 10.5023 27.5001 12.0923 27.5 13.75Z" fill="#66757F"/>
<path d="M21.25 16.25C22.6307 16.25 23.75 15.1307 23.75 13.75C23.75 12.3693 22.6307 11.25 21.25 11.25C19.8693 11.25 18.75 12.3693 18.75 13.75C18.75 15.1307 19.8693 16.25 21.25 16.25Z" fill="#CCD6DD"/>
<path d="M34.9988 22.5001C37.7602 22.5001 39.9988 20.2615 39.9988 17.5001C39.9988 14.7386 37.7602 12.5001 34.9988 12.5001C32.2374 12.5001 29.9988 14.7386 29.9988 17.5001C29.9988 20.2615 32.2374 22.5001 34.9988 22.5001Z" fill="#66757F"/>
<path d="M34.9987 20.0001C36.3794 20.0001 37.4987 18.8808 37.4987 17.5001C37.4987 16.1193 36.3794 15.0001 34.9987 15.0001C33.618 15.0001 32.4987 16.1193 32.4987 17.5001C32.4987 18.8808 33.618 20.0001 34.9987 20.0001Z" fill="#CCD6DD"/>
<path d="M21.25 25H33.75V37.5H21.25V25Z" fill="#8899A6"/>
<path d="M23.75 27.4999H31.25V34.9999H23.75V27.4999Z" fill="#31373D"/>
<path d="M16.2488 37.4999C17.6295 37.4999 18.7488 36.3807 18.7488 34.9999C18.7488 33.6192 17.6295 32.4999 16.2488 32.4999C14.8681 32.4999 13.7488 33.6192 13.7488 34.9999C13.7488 36.3807 14.8681 37.4999 16.2488 37.4999Z" fill="#8899A6"/>
</svg>
