<svg width="64" height="64" viewBox="0 0 64 64" fill="none" xmlns="http://www.w3.org/2000/svg">
<path d="M39.1111 8.15463C39.1111 18.9546 32.592 40.7466 19.5556 40.7466C6.51911 40.7466 0 18.9564 0 8.15463C0 -4.60981 14.6667 1.63552 19.5556 1.63552C24.3769 1.63552 39.1111 -4.67737 39.1111 8.15463Z" fill="#A6D388"/>
<path d="M9.77787 21.1911C17.9254 26.08 22.8143 26.08 29.3334 21.1911C34.2223 17.9324 26.0748 32.5991 19.5557 32.5991C13.0365 32.5991 4.88898 17.9324 9.77787 21.1911ZM6.51743 14.6738C6.23975 14.6734 5.96677 14.6021 5.72437 14.4666C5.48197 14.3312 5.27819 14.136 5.13235 13.8997C4.98651 13.6634 4.90345 13.3938 4.89103 13.1164C4.87862 12.839 4.93727 12.563 5.06143 12.3146C6.19209 10.0533 8.49787 8.49242 10.9334 8.34131C12.425 8.25775 15.3032 8.61687 17.6517 12.1404C17.8747 12.4999 17.9492 12.9321 17.8595 13.3455C17.7697 13.759 17.5228 14.1213 17.1708 14.3561C16.8188 14.5908 16.3894 14.6795 15.9732 14.6034C15.557 14.5274 15.1867 14.2925 14.9405 13.9484C13.8561 12.3218 12.5317 11.5058 11.1361 11.5946C9.83832 11.6746 8.59743 12.5298 7.97698 13.7742C7.84077 14.0445 7.63221 14.2717 7.37452 14.4306C7.11683 14.5894 6.82013 14.6736 6.51743 14.6738ZM32.5939 14.6738C32.2913 14.6731 31.9948 14.5885 31.7375 14.4293C31.4801 14.2702 31.2719 14.0428 31.1361 13.7724C30.5139 12.5298 29.2748 11.6746 27.977 11.5929C26.5974 11.5182 25.2588 12.32 24.1725 13.9466C24.0538 14.1247 23.9012 14.2775 23.7234 14.3966C23.5456 14.5156 23.3461 14.5985 23.1363 14.6404C22.9265 14.6823 22.7104 14.6825 22.5005 14.641C22.2907 14.5994 22.091 14.5169 21.913 14.3982C21.735 14.2795 21.5821 14.1269 21.463 13.9491C21.344 13.7713 21.2612 13.5718 21.2192 13.3619C21.1773 13.1521 21.1771 12.9361 21.2187 12.7262C21.2602 12.5163 21.3427 12.3167 21.4614 12.1386C23.8081 8.61331 26.6721 8.25242 28.1797 8.33953C30.6152 8.49064 32.921 10.0515 34.0516 12.3129C34.1768 12.5614 34.2362 12.8378 34.2241 13.1158C34.2121 13.3938 34.129 13.6641 33.9828 13.9009C33.8366 14.1376 33.6322 14.333 33.389 14.4683C33.1459 14.6036 32.8721 14.6743 32.5939 14.6738Z" fill="#5C913B"/>
<path d="M64 31.408C64 42.2062 57.4809 64 44.4445 64C31.408 64 24.8889 42.2062 24.8889 31.408C24.8889 18.6418 39.5556 24.8889 44.4445 24.8889C49.2676 24.8889 64 18.5742 64 31.408Z" fill="#CBB7EA"/>
<path d="M52.4446 53.6018C46.2223 49.7778 42.6668 49.7778 36.4446 53.6018C31.5557 56.8605 37.9254 45.7494 44.4446 45.7494C50.9637 45.7494 57.3334 56.8605 52.4446 53.6018ZM30.2223 38.9636C29.9445 38.9635 29.6713 38.8925 29.4287 38.7571C29.186 38.6218 28.982 38.4267 28.8359 38.1904C28.6899 37.954 28.6067 37.6843 28.5942 37.4067C28.5817 37.1292 28.6403 36.853 28.7646 36.6045C30.009 34.1174 33.0383 32.1778 35.9663 31.9965C38.6134 31.8205 40.9708 33.0365 42.5406 35.3938C42.7546 35.7532 42.8224 36.1811 42.7301 36.589C42.6377 36.997 42.3923 37.3539 42.0444 37.5862C41.6965 37.8184 41.2727 37.9082 40.8606 37.837C40.4484 37.7658 40.0793 37.5391 39.8294 37.2036C38.9014 35.8134 37.6694 35.1627 36.169 35.2498C34.1761 35.3725 32.3219 36.7769 31.6783 38.0641C31.5424 38.3338 31.3344 38.5607 31.0774 38.7195C30.8204 38.8783 30.5244 38.9628 30.2223 38.9636ZM58.6685 38.9636C58.3655 38.9631 58.0685 38.8784 57.8108 38.7189C57.5531 38.5594 57.3447 38.3315 57.209 38.0605C56.569 36.7752 54.7148 35.3725 52.7219 35.2481C51.225 35.1645 49.9859 35.8098 49.0597 37.2018C48.9431 37.385 48.7912 37.543 48.6127 37.6666C48.4343 37.7903 48.2329 37.877 48.0205 37.9218C47.8081 37.9665 47.5889 37.9684 47.3757 37.9273C47.1626 37.8862 46.9598 37.803 46.7792 37.6825C46.5987 37.5619 46.444 37.4066 46.3243 37.2255C46.2046 37.0444 46.1223 36.8412 46.0822 36.6278C46.0421 36.4145 46.045 36.1953 46.0907 35.9831C46.1364 35.7709 46.2241 35.5699 46.3486 35.3921C47.9201 33.0347 50.2383 31.8205 52.9246 31.9947C55.8543 32.1778 58.8837 34.1174 60.1263 36.6045C60.2511 36.853 60.3101 37.1292 60.2979 37.407C60.2856 37.6847 60.2024 37.9547 60.0563 38.1912C59.9102 38.4277 59.7059 38.6229 59.463 38.7581C59.2201 38.8933 58.9466 38.964 58.6685 38.9636Z" fill="#9266CC"/>
</svg>
