<svg width="64" height="64" viewBox="0 0 64 64" fill="none" xmlns="http://www.w3.org/2000/svg">
<path d="M55.6462 19.5557H8.29867C7.59828 19.5557 6.90476 19.6936 6.25769 19.9616C5.61062 20.2297 5.02267 20.6225 4.52743 21.1178C4.03218 21.613 3.63933 22.2009 3.37131 22.848C3.10328 23.4951 2.96533 24.1886 2.96533 24.889C2.96533 25.5894 3.10328 26.2829 3.37131 26.93C3.63933 27.577 4.03218 28.165 4.52743 28.6602C5.02267 29.1555 5.61062 29.5483 6.25769 29.8164C6.90476 30.0844 7.59828 30.2223 8.29867 30.2223C8.62222 30.2223 8.93333 30.1814 9.24089 30.1281L9.21244 30.2223L10.3449 55.1183C10.5209 59.0259 13.8667 62.2223 17.7778 62.2223H46.2222C50.1333 62.2223 53.4791 59.0259 53.6569 55.1183L54.7876 30.2223L54.7609 30.1334C55.0507 30.1814 55.3422 30.2223 55.6462 30.2223C56.3466 30.2223 57.0401 30.0844 57.6872 29.8164C58.3343 29.5483 58.9222 29.1555 59.4175 28.6602C59.9127 28.165 60.3056 27.577 60.5736 26.93C60.8416 26.2829 60.9796 25.5894 60.9796 24.889C60.9796 24.1886 60.8416 23.4951 60.5736 22.848C60.3056 22.2009 59.9127 21.613 59.4175 21.1178C58.9222 20.6225 58.3343 20.2297 57.6872 19.9616C57.0401 19.6936 56.3466 19.5557 55.6462 19.5557Z" fill="#E1E8ED"/>
<path d="M50.9653 30.2222V60.4248C52.4996 59.1199 53.5325 57.2319 53.6178 55.1164L54.8267 30.2222H50.9653ZM40.2987 30.2222H45.632V62.2222H40.2987V30.2222ZM29.632 62.2222V30.2222H34.9653V62.2222H29.632ZM18.9653 30.2222H24.2987V62.2222H18.9653V30.2222ZM9.17334 30.2222L10.3822 55.1164C10.4782 57.5022 11.7618 59.6106 13.632 60.9013V30.2222H9.17334Z" fill="#DA2F47"/>
<path opacity="0.6" d="M9.17334 30.2222L9.34578 33.7777H54.6525L54.8267 30.2222H9.17334Z" fill="#99AAB5"/>
<path d="M54.985 19.6801C55.0614 19.353 55.1112 19.017 55.1112 18.6668C55.1112 17.4685 54.6312 16.3841 53.8596 15.5859C54.6099 15.113 55.1112 14.2845 55.1112 13.3334C55.1105 12.8978 55.0032 12.4691 54.7985 12.0846C54.5938 11.7001 54.2981 11.3716 53.9371 11.1278C53.5761 10.884 53.1609 10.7323 52.7278 10.686C52.2947 10.6397 51.8569 10.7003 51.4525 10.8623C51.3304 10.4148 51.0936 10.007 50.7656 9.67899C50.4376 9.35101 50.0298 9.11425 49.5823 8.99209C49.7444 8.58777 49.8049 8.14991 49.7586 7.71679C49.7123 7.28368 49.5607 6.86849 49.3169 6.50753C49.0731 6.14657 48.7446 5.85082 48.3601 5.64615C47.9756 5.44147 47.5468 5.3341 47.1112 5.33342C46.7716 5.33342 46.4499 5.40275 46.1512 5.51831C46.0611 4.9285 45.8528 4.36294 45.539 3.85548C45.2252 3.34802 44.8122 2.90909 44.3248 2.56497C43.8373 2.22085 43.2855 1.97861 42.7022 1.85274C42.119 1.72688 41.5164 1.71998 40.9304 1.83246C40.3444 1.94493 39.7872 2.17448 39.292 2.50735C38.7968 2.84022 38.3739 3.26958 38.0485 3.76972C37.7232 4.26986 37.5021 4.8305 37.3984 5.4181C37.2948 6.00569 37.3108 6.60815 37.4454 7.18942C36.3076 7.39031 35.3299 8.0232 34.6668 8.91209C34.2562 8.35482 33.7206 7.90161 33.1031 7.58885C32.4856 7.27608 31.8034 7.11249 31.1112 7.1112C29.9325 7.1112 28.802 7.57945 27.9685 8.41295C27.135 9.24644 26.6668 10.3769 26.6668 11.5556L26.6685 11.577C26.122 11.1581 25.4842 10.8743 24.8072 10.7485C24.6201 9.72779 24.0812 8.8049 23.2841 8.14036C22.4871 7.47582 21.4823 7.11166 20.4445 7.1112C19.4042 7.11192 18.3972 7.47816 17.5994 8.14593C16.8017 8.81371 16.2639 9.74055 16.0801 10.7645C15.7602 10.7067 15.4362 10.674 15.1112 10.6668C13.461 10.6668 11.8783 11.3223 10.7114 12.4892C9.54453 13.6561 8.88898 15.2387 8.88898 16.889C8.88898 17.8579 9.12898 18.7628 9.52365 19.5805C8.82939 19.6275 8.18124 19.9448 7.71839 20.4644C7.25555 20.984 7.01493 21.6644 7.04821 22.3594C7.0815 23.0544 7.38603 23.7087 7.89641 24.1817C8.40679 24.6546 9.08231 24.9086 9.77787 24.889H54.2223C54.8635 24.8932 55.4846 24.6655 55.971 24.2478C56.4575 23.8302 56.7766 23.2507 56.8695 22.6163C56.9624 21.9819 56.8228 21.3353 56.4765 20.7957C56.1302 20.2561 55.6004 19.8599 54.985 19.6801Z" fill="#FFD983"/>
<path d="M49.7778 15.9999C50.7596 15.9999 51.5556 15.204 51.5556 14.2221C51.5556 13.2403 50.7596 12.4443 49.7778 12.4443C48.7959 12.4443 48 13.2403 48 14.2221C48 15.204 48.7959 15.9999 49.7778 15.9999Z" fill="#FFAC33"/>
<path d="M43.5556 12.4444C45.0283 12.4444 46.2222 11.2505 46.2222 9.77775C46.2222 8.30499 45.0283 7.11108 43.5556 7.11108C42.0828 7.11108 40.8889 8.30499 40.8889 9.77775C40.8889 11.2505 42.0828 12.4444 43.5556 12.4444Z" fill="#FFAC33"/>
<path d="M21.3334 14.2223C22.3153 14.2223 23.1112 13.4264 23.1112 12.4445C23.1112 11.4627 22.3153 10.6667 21.3334 10.6667C20.3516 10.6667 19.5557 11.4627 19.5557 12.4445C19.5557 13.4264 20.3516 14.2223 21.3334 14.2223Z" fill="#FFAC33"/>
<path d="M55.1112 22.2222C55.1113 21.5917 54.8875 20.9817 54.4798 20.5008C54.0722 20.02 53.507 19.6994 52.885 19.5963C52.2631 19.4932 51.6247 19.6143 51.0837 19.9379C50.5427 20.2615 50.1341 20.7667 49.9308 21.3635C49.8792 21.3599 49.833 21.3333 49.7779 21.3333C49.3064 21.3333 48.8542 21.5206 48.5208 21.854C48.1874 22.1874 48.0001 22.6395 48.0001 23.111H54.9476C55.0472 22.8319 55.1112 22.535 55.1112 22.2222ZM16.889 21.3333C17.241 21.3333 17.5734 21.4044 17.881 21.5288C18.0468 20.9036 18.4347 20.3603 18.9722 20.0005C19.5098 19.6407 20.16 19.4891 20.8012 19.5741C21.4424 19.6591 22.0306 19.9748 22.4558 20.4623C22.881 20.9497 23.114 21.5753 23.1112 22.2222C23.1112 22.535 23.0472 22.8319 22.9476 23.111H30.3859C30.2812 22.8262 30.2258 22.5256 30.2223 22.2222C30.2223 21.5149 30.5033 20.8366 31.0034 20.3365C31.5035 19.8364 32.1817 19.5555 32.889 19.5555C33.3103 19.5555 33.705 19.6622 34.0588 19.8364C33.8772 19.4729 33.7812 19.0728 33.7779 18.6666C33.7763 18.2727 33.8621 17.8833 34.029 17.5265C34.1959 17.1697 34.4397 16.8543 34.743 16.603C35.0463 16.3516 35.4016 16.1706 35.7832 16.0729C36.1648 15.9752 36.5633 15.9633 36.95 16.038C37.3368 16.1127 37.7022 16.2721 38.02 16.5048C38.3378 16.7376 38.6001 17.0378 38.7881 17.384C38.976 17.7302 39.0849 18.1137 39.107 18.507C39.129 18.9003 39.0637 19.2936 38.9156 19.6586C40.0499 19.9644 40.889 20.9902 40.889 22.2222C40.889 22.535 40.825 22.8319 40.7254 23.111H46.0019L44.9956 22.2222C45.7423 21.5697 46.2223 20.6239 46.2223 19.5555C46.2223 18.6125 45.8477 17.7081 45.1809 17.0413C44.5141 16.3745 43.6097 15.9999 42.6668 15.9999C42.0202 16.0044 41.3871 16.1851 40.8356 16.5226C40.8623 16.3502 40.889 16.1795 40.889 15.9999C40.8905 15.1879 40.6137 14.4 40.1047 13.7674C39.5956 13.1348 38.8851 12.6958 38.0916 12.5236C37.2981 12.3514 36.4695 12.4565 35.744 12.8212C35.0186 13.1859 34.4401 13.7883 34.105 14.5279C33.7297 14.3308 33.3128 14.226 32.889 14.2222C32.4534 14.2228 32.0246 14.3302 31.6401 14.5349C31.2556 14.7396 30.9271 15.0353 30.6833 15.3963C30.4395 15.7572 30.2878 16.1724 30.2416 16.6055C30.1953 17.0386 30.2558 17.4765 30.4179 17.8808C29.2836 18.1884 28.4445 19.2142 28.4445 20.4444C28.4445 20.7964 28.5156 21.1288 28.6401 21.4364C28.2374 21.5456 27.866 21.7477 27.5556 22.0266C27.0688 21.5841 26.4357 21.3372 25.7779 21.3333C25.3565 21.3333 24.9619 21.4399 24.6063 21.6159C24.7823 21.2604 24.889 20.8657 24.889 20.4444C24.8883 20.0088 24.7809 19.58 24.5762 19.1955C24.3716 18.811 24.0758 18.4825 23.7149 18.2387C23.3539 17.9949 22.9387 17.8432 22.5056 17.797C22.0725 17.7507 21.6346 17.8112 21.2303 17.9733C21.1363 17.6228 20.9715 17.2952 20.7461 17.0108C20.5208 16.7264 20.2396 16.4911 19.9199 16.3194C19.6002 16.1477 19.2487 16.0433 18.8871 16.0125C18.5255 15.9817 18.1615 16.0253 17.8174 16.1405C17.4733 16.2557 17.1564 16.4401 16.8862 16.6823C16.616 16.9246 16.3982 17.2196 16.2463 17.5491C16.0944 17.8787 16.0115 18.2358 16.0028 18.5986C15.9941 18.9614 16.0597 19.3221 16.1956 19.6586C15.793 19.7678 15.4215 19.97 15.1112 20.2488C14.6244 19.8063 13.9912 19.5594 13.3334 19.5555C12.6262 19.5555 11.9479 19.8364 11.4478 20.3365C10.9477 20.8366 10.6667 21.5149 10.6667 22.2222C10.6667 22.535 10.7307 22.8319 10.8303 23.111H14.3859C14.7539 22.0782 15.7299 21.3333 16.889 21.3333Z" fill="#FFAC33"/>
<path d="M7.11108 23.1111V24.8889C7.11108 25.3604 7.29839 25.8125 7.63178 26.1459C7.96518 26.4793 8.41737 26.6666 8.88886 26.6666H55.1111C55.5826 26.6666 56.0348 26.4793 56.3682 26.1459C56.7016 25.8125 56.8889 25.3604 56.8889 24.8889V23.1111H7.11108Z" fill="white"/>
</svg>
