<svg width="64" height="64" viewBox="0 0 64 64" fill="none" xmlns="http://www.w3.org/2000/svg">
<path d="M61.0613 30.0321L45.2409 24.1761L39.3333 4.81434C39.2217 4.45066 38.9964 4.13238 38.6905 3.90625C38.3846 3.68013 38.0142 3.55811 37.6338 3.55811C37.2534 3.55811 36.883 3.68013 36.5771 3.90625C36.2711 4.13238 36.0458 4.45066 35.9342 4.81434L30.0284 24.1761L14.2062 30.0321C13.8654 30.1581 13.5714 30.3854 13.3637 30.6836C13.156 30.9817 13.0447 31.3363 13.0447 31.6997C13.0447 32.063 13.156 32.4176 13.3637 32.7158C13.5714 33.0139 13.8654 33.2413 14.2062 33.3672L30.0195 39.2215L35.9289 59.1735C36.0378 59.5413 36.2627 59.864 36.5701 60.0934C36.8775 60.3228 37.2509 60.4467 37.6344 60.4465C38.018 60.4463 38.3912 60.3221 38.6984 60.0923C39.0055 59.8625 39.2301 59.5396 39.3387 59.1717L45.248 39.2197L61.0631 33.3655C61.4048 33.2405 61.6998 33.0136 61.9082 32.7153C62.1166 32.4171 62.2283 32.062 62.2281 31.6982C62.2279 31.3343 62.1159 30.9794 61.9072 30.6814C61.6984 30.3833 61.4032 30.1567 61.0613 30.0321Z" fill="#FFAC33"/>
<path d="M25.5057 49.5893L21.392 48.0675L19.792 42.2008C19.6917 41.8227 19.4692 41.4884 19.1593 41.2498C18.8493 41.0112 18.4692 40.8817 18.078 40.8815C17.6868 40.8813 17.3066 41.0104 16.9963 41.2487C16.6861 41.4869 16.4633 41.821 16.3626 42.199L14.7626 48.0657L10.6506 49.5875C10.3098 49.7134 10.0158 49.9408 9.80811 50.2389C9.60043 50.5371 9.4891 50.8917 9.4891 51.255C9.4891 51.6184 9.60043 51.973 9.80811 52.2711C10.0158 52.5693 10.3098 52.7966 10.6506 52.9226L14.7413 54.439L16.3537 60.8781C16.4503 61.2625 16.6725 61.6036 16.985 61.8472C17.2976 62.0908 17.6826 62.223 18.0789 62.2228C18.4752 62.2226 18.86 62.09 19.1723 61.8461C19.4847 61.6021 19.7065 61.2608 19.8026 60.8764L21.4151 54.4373L25.5057 52.9208C25.8477 52.7965 26.1431 52.5699 26.3519 52.2719C26.5606 51.9739 26.6726 51.6189 26.6726 51.255C26.6726 50.8912 26.5606 50.5361 26.3519 50.2381C26.1431 49.9401 25.8477 49.7136 25.5057 49.5893ZM17.7937 11.0773L13.5911 9.5217L12.0337 5.31725C11.9086 4.97566 11.6815 4.68075 11.3833 4.47241C11.085 4.26407 10.73 4.15234 10.3662 4.15234C10.0024 4.15234 9.64736 4.26407 9.34912 4.47241C9.05088 4.68075 8.82382 4.97566 8.69864 5.31725L7.14308 9.5217L2.93864 11.0773C2.59782 11.2032 2.30378 11.4306 2.09611 11.7287C1.88843 12.0268 1.7771 12.3815 1.7771 12.7448C1.7771 13.1082 1.88843 13.4628 2.09611 13.7609C2.30378 14.0591 2.59782 14.2864 2.93864 14.4124L7.14308 15.9679L8.69864 20.1724C8.82458 20.5132 9.05194 20.8072 9.35008 21.0149C9.64823 21.2226 10.0028 21.3339 10.3662 21.3339C10.7295 21.3339 11.0842 21.2226 11.3823 21.0149C11.6804 20.8072 11.9078 20.5132 12.0337 20.1724L13.5893 15.9679L17.7937 14.4124C18.1346 14.2864 18.4286 14.0591 18.6363 13.7609C18.844 13.4628 18.9553 13.1082 18.9553 12.7448C18.9553 12.3815 18.844 12.0268 18.6363 11.7287C18.4286 11.4306 18.1346 11.2032 17.7937 11.0773Z" fill="#FFCC4D"/>
</svg>
