<svg width="45" height="45" viewBox="0 0 45 45" fill="none" xmlns="http://www.w3.org/2000/svg">
<path d="M34.1088 43.2837C33.6038 43.2837 33.1013 43.1287 32.6688 42.82L22.5 35.5275L12.3313 42.82C11.91 43.1231 11.4037 43.2853 10.8847 43.2835C10.3656 43.2817 9.86048 43.116 9.44128 42.81C9.02154 42.5059 8.70846 42.0771 8.54664 41.5846C8.38482 41.0922 8.3825 40.5613 8.54003 40.0675L12.3325 27.8275L2.25503 20.7262C1.83738 20.418 1.52721 19.9863 1.36839 19.4921C1.20957 18.9979 1.21014 18.4663 1.37003 17.9725C1.5315 17.4801 1.84347 17.0507 2.26196 16.7451C2.68044 16.4394 3.18431 16.2728 3.70253 16.2687L16.1838 16.25L20.1575 4.31373C20.3215 3.82201 20.636 3.39435 21.0566 3.0913C21.4771 2.78825 21.9823 2.62518 22.5007 2.62518C23.019 2.62518 23.5242 2.78825 23.9447 3.0913C24.3653 3.39435 24.6798 3.82201 24.8438 4.31373L28.75 16.25L41.295 16.2687C41.814 16.2717 42.3188 16.438 42.7377 16.7442C43.1567 17.0504 43.4685 17.4808 43.629 17.9744C43.7894 18.4679 43.7902 18.9994 43.6313 19.4934C43.4724 19.9874 43.1618 20.4188 42.7438 20.7262L32.6663 27.8275L36.4588 40.0675C36.6164 40.5612 36.6143 41.092 36.4527 41.5844C36.2911 42.0768 35.9783 42.5057 35.5588 42.81C35.1382 43.1182 34.6302 43.2841 34.1088 43.2837Z" fill="#FFAC33"/>
</svg>
