<svg width="45" height="45" viewBox="0 0 45 45" fill="none" xmlns="http://www.w3.org/2000/svg">
<path d="M43.75 38.7499C43.75 38.7499 43.75 43.7499 38.75 43.7499H6.25C1.25 43.7499 1.25 38.7499 1.25 38.7499V14.9999C1.25 9.99994 6.25 9.99994 6.25 9.99994H38.75C38.75 9.99994 43.75 9.99994 43.75 14.9999V38.7499Z" fill="#31373D"/>
<path d="M26.6287 12.9863C26.7448 13.1024 26.8369 13.2401 26.8997 13.3918C26.9625 13.5434 26.9948 13.7059 26.9948 13.8701C26.9948 14.0342 26.9625 14.1967 26.8997 14.3483C26.8369 14.5 26.7448 14.6378 26.6287 14.7538C26.5127 14.8699 26.3749 14.9619 26.2233 15.0247C26.0716 15.0875 25.9091 15.1199 25.745 15.1199C25.5809 15.1199 25.4184 15.0875 25.2667 15.0247C25.1151 14.9619 24.9773 14.8699 24.8612 14.7538L13.3712 3.26381C13.2552 3.14775 13.1631 3.00998 13.1003 2.85834C13.0375 2.70671 13.0052 2.54419 13.0052 2.38006C13.0052 2.04859 13.1369 1.7307 13.3712 1.49631C13.6056 1.26193 13.9235 1.13025 14.255 1.13025C14.5865 1.13025 14.9044 1.26193 15.1387 1.49631L26.6287 12.9863Z" fill="#31373D"/>
<path d="M18.3712 12.9863C18.2552 13.1024 18.1631 13.2401 18.1003 13.3918C18.0375 13.5434 18.0052 13.7059 18.0052 13.8701C18.0052 14.0342 18.0375 14.1967 18.1003 14.3483C18.1631 14.5 18.2552 14.6378 18.3712 14.7538C18.4873 14.8699 18.6251 14.9619 18.7767 15.0247C18.9284 15.0875 19.0909 15.1199 19.255 15.1199C19.4191 15.1199 19.5816 15.0875 19.7333 15.0247C19.8849 14.9619 20.0227 14.8699 20.1387 14.7538L31.6287 3.26381C31.7448 3.14775 31.8369 3.00998 31.8997 2.85834C31.9625 2.70671 31.9948 2.54419 31.9948 2.38006C31.9948 2.21593 31.9625 2.05341 31.8997 1.90178C31.8369 1.75014 31.7448 1.61237 31.6287 1.49631C31.5127 1.38025 31.3749 1.28819 31.2233 1.22539C31.0716 1.16258 30.9091 1.13025 30.745 1.13025C30.5809 1.13025 30.4184 1.16258 30.2667 1.22539C30.1151 1.28819 29.9773 1.38025 29.8612 1.49631L18.3712 12.9863Z" fill="#31373D"/>
<path d="M22.5 13.75C32.5 13.75 35 15 36.25 16.25C37.5 17.5 38.75 20 38.75 26.25C38.75 32.5 37.5 35 36.25 36.25C35 37.5 32.5 38.75 22.5 38.75C12.5 38.75 10 37.5 8.75 36.25C7.5 35 6.25 32.5 6.25 26.25C6.25 20 7.5 17.5 8.75 16.25C10 15 12.5 13.75 22.5 13.75Z" fill="#55ACEE"/>
<path d="M39.375 41.2501C40.4105 41.2501 41.25 40.4106 41.25 39.3751C41.25 38.3395 40.4105 37.5001 39.375 37.5001C38.3395 37.5001 37.5 38.3395 37.5 39.3751C37.5 40.4106 38.3395 41.2501 39.375 41.2501Z" fill="#66757F"/>
<path d="M5.625 41.2501C6.66053 41.2501 7.5 40.4106 7.5 39.3751C7.5 38.3395 6.66053 37.5001 5.625 37.5001C4.58947 37.5001 3.75 38.3395 3.75 39.3751C3.75 40.4106 4.58947 41.2501 5.625 41.2501Z" fill="#66757F"/>
</svg>
